# xmcd
#
# Track frame offsets:
# 150
# 13090
# 23239
# 38266
# 50388
# 62926
# 75559
# 86248
# 98007
# 111694
#
# Disc length: 1694 seconds
#
#
# Revision: 0
# Processed by: cddbd v1.4PL0 Copyright (c) Steve Scherf et al.
# Submitted via: FreeRIP 2.51 
#
DISCID=79069c0a
DTITLE=the jordanaires - gospel treasures
DYEAR=1900
DGENRE=gospel
TTITLE0=in the sweet bye and bye
TTITLE1=canaans land
TTITLE2=swing low sweet chariot
TTITLE3=when we all get to heaven
TTITLE4=in the garden
TTITLE5=love lifted me
TTITLE6=power in the blood
TTITLE7=i shall not be moved
TTITLE8=leaning on the everlasting arms
TTITLE9=when the roll is called up yonder
EXTD=
EXTT0=
EXTT1=
EXTT2=
EXTT3=
EXTT4=
EXTT5=
EXTT6=
EXTT7=
EXTT8=
EXTT9=
PLAYORDER=
